HIERARCHY
ROOT newVegas:Hips
{
	OFFSET 0.000000 96.479958 0.000000
	CHANNELS 6 Xposition Yposition Zposition Xrotation Yrotation Zrotation
	JOINT newVegas:Pelvis
	{
		OFFSET 0.000000 0.000000 0.000000
		CHANNELS 3 Xrotation Yrotation Zrotation
		JOINT newVegas:LeftUpLeg
		{
			OFFSET 18.735201 -5.666702 -4.541200
			CHANNELS 3 Xrotation Yrotation Zrotation
			JOINT newVegas:LeftLeg
			{
				OFFSET -0.021200 -31.938179 0.493100
				CHANNELS 3 Xrotation Yrotation Zrotation
				JOINT newVegas:LeftFoot
				{
					OFFSET 0.021200 -31.938179 -4.336299
					CHANNELS 3 Xrotation Yrotation Zrotation
					JOINT newVegas:LeftToeBase
					{
						OFFSET 0.943001 -26.722000 15.023500
						CHANNELS 3 Xrotation Yrotation Zrotation
						End Site
						{
							OFFSET 0.000000 30.670183 0.000000
						}
					}
				}
				JOINT newVegas:Left_PantLeg
				{
					OFFSET 0.663870 -9.044666 -1.108900
					CHANNELS 3 Xrotation Yrotation Zrotation
					End Site
					{
						OFFSET 1.415995 20.635357 0.000000
					}
				}
			}
		}
		JOINT newVegas:RightUpLeg
		{
			OFFSET -18.735201 -5.666702 -4.541200
			CHANNELS 3 Xrotation Yrotation Zrotation
			JOINT newVegas:RightLeg
			{
				OFFSET 0.018946 -31.938133 0.493100
				CHANNELS 3 Xrotation Yrotation Zrotation
				JOINT newVegas:RightFoot
				{
					OFFSET -0.018946 -31.938126 -4.336299
					CHANNELS 3 Xrotation Yrotation Zrotation
					JOINT newVegas:RightToeBase
					{
						OFFSET -0.943001 -26.722004 15.023500
						CHANNELS 3 Xrotation Yrotation Zrotation
						End Site
						{
							OFFSET 0.000000 30.670187 0.000000
						}
					}
				}
				JOINT newVegas:Right_PantLeg
				{
					OFFSET -0.661674 -9.044716 -1.108900
					CHANNELS 3 Xrotation Yrotation Zrotation
					End Site
					{
						OFFSET -1.415958 20.635269 0.000000
					}
				}
			}
		}
	}
	JOINT newVegas:Spine
	{
		OFFSET 0.000000 10.199997 -0.299500
		CHANNELS 3 Xrotation Yrotation Zrotation
		JOINT newVegas:Spine1
		{
			OFFSET 0.000000 11.900002 -1.516600
			CHANNELS 3 Xrotation Yrotation Zrotation
			JOINT newVegas:Spine2
			{
				OFFSET 0.000000 13.600006 -2.842500
				CHANNELS 3 Xrotation Yrotation Zrotation
				JOINT newVegas:Neck
				{
					OFFSET 0.000000 9.624100 -2.890100
					CHANNELS 3 Xrotation Yrotation Zrotation
					JOINT newVegas:Head
					{
						OFFSET 0.000000 14.068802 -1.351900
						CHANNELS 3 Xrotation Yrotation Zrotation
						JOINT newVegas:Hair_Back
						{
							OFFSET 0.000000 3.231903 -17.524799
							CHANNELS 3 Xrotation Yrotation Zrotation
							End Site
							{
								OFFSET 0.000000 19.849884 0.000000
							}
						}
						JOINT newVegas:Hair_Front
						{
							OFFSET 0.000000 31.260406 4.573800
							CHANNELS 3 Xrotation Yrotation Zrotation
							JOINT newVegas:Hair_Front1
							{
								OFFSET 0.000000 2.284103 11.993300
								CHANNELS 3 Xrotation Yrotation Zrotation
								JOINT newVegas:Hair_Front2
								{
									OFFSET 0.000000 2.284103 11.993300
									CHANNELS 3 Xrotation Yrotation Zrotation
									End Site
									{
										OFFSET 0.000000 12.208862 0.000000
									}
								}
							}
						}
						JOINT newVegas:Jowel
						{
							OFFSET 0.000000 -7.458206 6.864100
							CHANNELS 3 Xrotation Yrotation Zrotation
							End Site
							{
								OFFSET 0.000000 19.849884 0.000000
							}
						}
					}
				}
				JOINT newVegas:LeftShoulder
				{
					OFFSET 15.263000 10.923401 -0.547700
					CHANNELS 3 Xrotation Yrotation Zrotation
					JOINT newVegas:LeftArm
					{
						OFFSET 25.438599 -2.830597 -13.032500
						CHANNELS 3 Xrotation Yrotation Zrotation
						JOINT newVegas:LeftForeArm
						{
							OFFSET 29.960503 0.000000 0.000000
							CHANNELS 3 Xrotation Yrotation Zrotation
							JOINT newVegas:LeftHand
							{
								OFFSET 27.849251 0.000000 0.000000
								CHANNELS 3 Xrotation Yrotation Zrotation
								JOINT newVegas:LeftHandThumb1
								{
									OFFSET 4.487587 -3.305161 6.305391
									CHANNELS 3 Xrotation Yrotation Zrotation
									JOINT newVegas:LeftHandThumb2
									{
										OFFSET 5.480453 -3.164139 3.164143
										CHANNELS 3 Xrotation Yrotation Zrotation
										JOINT newVegas:LeftHandThumb3
										{
											OFFSET 5.159721 -2.978973 2.978967
											CHANNELS 3 Xrotation Yrotation Zrotation
											End Site
											{
												OFFSET 2.494507 5.926697 1.738678
											}
										}
									}
								}
								JOINT newVegas:LeftHandIndex1
								{
									OFFSET 18.578728 -0.527832 5.208049
									CHANNELS 3 Xrotation Yrotation Zrotation
									JOINT newVegas:LeftHandIndex2
									{
										OFFSET 3.192009 0.000000 0.000000
										CHANNELS 3 Xrotation Yrotation Zrotation
										JOINT newVegas:LeftHandIndex3
										{
											OFFSET 3.835129 0.000000 0.000000
											CHANNELS 3 Xrotation Yrotation Zrotation
											End Site
											{
												OFFSET -0.034599 3.816971 0.371180
											}
										}
									}
								}
								JOINT newVegas:LeftHandMiddle1
								{
									OFFSET 18.476105 0.000000 0.000000
									CHANNELS 3 Xrotation Yrotation Zrotation
									JOINT newVegas:LeftHandMiddle2
									{
										OFFSET 3.324875 0.000000 0.000000
										CHANNELS 3 Xrotation Yrotation Zrotation
										JOINT newVegas:LeftHandMiddle3
										{
											OFFSET 4.596550 0.000000 0.000000
											CHANNELS 3 Xrotation Yrotation Zrotation
											End Site
											{
												OFFSET 0.057701 4.578827 0.399218
											}
										}
									}
								}
								JOINT newVegas:LeftHandRing1
								{
									OFFSET 17.732719 0.121887 -4.201567
									CHANNELS 3 Xrotation Yrotation Zrotation
									JOINT newVegas:LeftHandRing2
									{
										OFFSET 2.733170 0.000000 0.000000
										CHANNELS 3 Xrotation Yrotation Zrotation
										JOINT newVegas:LeftHandRing3
										{
											OFFSET 3.178268 0.000000 0.000000
											CHANNELS 3 Xrotation Yrotation Zrotation
											End Site
											{
												OFFSET 0.119102 3.170624 0.185394
											}
										}
									}
								}
								JOINT newVegas:LeftHandPinky1
								{
									OFFSET 15.989624 -0.606689 -7.535461
									CHANNELS 3 Xrotation Yrotation Zrotation
									JOINT newVegas:LeftHandPinky2
									{
										OFFSET 2.538986 0.000000 0.000000
										CHANNELS 3 Xrotation Yrotation Zrotation
										JOINT newVegas:LeftHandPinky3
										{
											OFFSET 2.593102 0.000000 0.000000
											CHANNELS 3 Xrotation Yrotation Zrotation
											End Site
											{
												OFFSET -0.150902 2.584198 0.152708
											}
										}
									}
								}
							}
							JOINT newVegas:Left_Sleeve
							{
								OFFSET 0.267448 -0.649796 0.577675
								CHANNELS 3 Xrotation Yrotation Zrotation
								End Site
								{
									OFFSET 0.000000 15.991241 0.000000
								}
							}
							JOINT newVegas:Left_CapeC
							{
								OFFSET 15.715958 -8.608795 -6.935905
								CHANNELS 3 Xrotation Yrotation Zrotation
								JOINT newVegas:Left_CapeC1
								{
									OFFSET 0.000000 -8.688499 0.000000
									CHANNELS 3 Xrotation Yrotation Zrotation
									End Site
									{
										OFFSET 0.000000 8.688499 0.000000
									}
								}
							}
						}
						JOINT newVegas:Left_CapeB
						{
							OFFSET 26.118385 -8.608795 -7.079235
							CHANNELS 3 Xrotation Yrotation Zrotation
							JOINT newVegas:Left_CapeB1
							{
								OFFSET 0.000000 -8.688499 0.000000
								CHANNELS 3 Xrotation Yrotation Zrotation
								End Site
								{
									OFFSET 0.000000 8.688499 0.000000
								}
							}
						}
						JOINT newVegas:Left_CapeA
						{
							OFFSET 5.115639 -8.608795 -10.395809
							CHANNELS 3 Xrotation Yrotation Zrotation
							JOINT newVegas:Left_CapeA1
							{
								OFFSET 0.000000 -8.688499 0.000000
								CHANNELS 3 Xrotation Yrotation Zrotation
								End Site
								{
									OFFSET 0.000000 8.688499 0.000000
								}
							}
						}
					}
				}
				JOINT newVegas:RightShoulder
				{
					OFFSET -15.263000 10.923401 -0.547700
					CHANNELS 3 Xrotation Yrotation Zrotation
					JOINT newVegas:RightArm
					{
						OFFSET -25.438599 -2.830597 -13.032500
						CHANNELS 3 Xrotation Yrotation Zrotation
						JOINT newVegas:RightForeArm
						{
							OFFSET -29.960503 0.000000 0.000000
							CHANNELS 3 Xrotation Yrotation Zrotation
							JOINT newVegas:RightHand
							{
								OFFSET -27.849251 0.000000 0.000000
								CHANNELS 3 Xrotation Yrotation Zrotation
								JOINT newVegas:RightHandThumb1
								{
									OFFSET -4.487587 -3.305161 6.305391
									CHANNELS 3 Xrotation Yrotation Zrotation
									JOINT newVegas:RightHandThumb2
									{
										OFFSET -5.480453 -3.164139 3.164143
										CHANNELS 3 Xrotation Yrotation Zrotation
										JOINT newVegas:RightHandThumb3
										{
											OFFSET -5.159721 -2.978973 2.978967
											CHANNELS 3 Xrotation Yrotation Zrotation
											End Site
											{
												OFFSET -2.494507 5.926697 1.738678
											}
										}
									}
								}
								JOINT newVegas:RightHandIndex1
								{
									OFFSET -18.578728 -0.527832 5.208049
									CHANNELS 3 Xrotation Yrotation Zrotation
									JOINT newVegas:RightHandIndex2
									{
										OFFSET -3.192009 0.000000 0.000000
										CHANNELS 3 Xrotation Yrotation Zrotation
										JOINT newVegas:RightHandIndex3
										{
											OFFSET -3.835129 0.000000 0.000000
											CHANNELS 3 Xrotation Yrotation Zrotation
											End Site
											{
												OFFSET 0.034599 3.816971 0.371180
											}
										}
									}
								}
								JOINT newVegas:RightHandMiddle1
								{
									OFFSET -18.476105 0.000000 0.000000
									CHANNELS 3 Xrotation Yrotation Zrotation
									JOINT newVegas:RightHandMiddle2
									{
										OFFSET -3.324875 0.000000 0.000000
										CHANNELS 3 Xrotation Yrotation Zrotation
										JOINT newVegas:RightHandMiddle3
										{
											OFFSET -4.596550 0.000000 0.000000
											CHANNELS 3 Xrotation Yrotation Zrotation
											End Site
											{
												OFFSET -0.057701 4.578827 0.399218
											}
										}
									}
								}
								JOINT newVegas:RightHandRing1
								{
									OFFSET -17.732719 0.121887 -4.201567
									CHANNELS 3 Xrotation Yrotation Zrotation
									JOINT newVegas:RightHandRing2
									{
										OFFSET -2.733170 0.000000 0.000000
										CHANNELS 3 Xrotation Yrotation Zrotation
										JOINT newVegas:RightHandRing3
										{
											OFFSET -3.178268 0.000000 0.000000
											CHANNELS 3 Xrotation Yrotation Zrotation
											End Site
											{
												OFFSET -0.119102 3.170624 0.185394
											}
										}
									}
								}
								JOINT newVegas:RightHandPinky1
								{
									OFFSET -15.989624 -0.606689 -7.535461
									CHANNELS 3 Xrotation Yrotation Zrotation
									JOINT newVegas:RightHandPinky2
									{
										OFFSET -2.538986 0.000000 0.000000
										CHANNELS 3 Xrotation Yrotation Zrotation
										JOINT newVegas:RightHandPinky3
										{
											OFFSET -2.593102 0.000000 0.000000
											CHANNELS 3 Xrotation Yrotation Zrotation
											End Site
											{
												OFFSET 0.150902 2.584198 0.152708
											}
										}
									}
								}
							}
							JOINT newVegas:Right_CapeC
							{
								OFFSET -15.715958 -8.608795 -6.935905
								CHANNELS 3 Xrotation Yrotation Zrotation
								JOINT newVegas:Right_CapeC1
								{
									OFFSET 0.000000 -8.688499 0.000000
									CHANNELS 3 Xrotation Yrotation Zrotation
									End Site
									{
										OFFSET 0.000000 8.688499 0.000000
									}
								}
							}
							JOINT newVegas:Right_Sleeve
							{
								OFFSET -0.267448 -0.649994 0.577675
								CHANNELS 3 Xrotation Yrotation Zrotation
								End Site
								{
									OFFSET 0.000000 15.991302 0.000000
								}
							}
						}
						JOINT newVegas:Right_CapeA
						{
							OFFSET -5.115540 -8.608795 -10.395824
							CHANNELS 3 Xrotation Yrotation Zrotation
							JOINT newVegas:Right_CapeA1
							{
								OFFSET 0.000000 -8.688499 0.000000
								CHANNELS 3 Xrotation Yrotation Zrotation
								End Site
								{
									OFFSET 0.000000 8.688499 0.000000
								}
							}
						}
						JOINT newVegas:Right_CapeB
						{
							OFFSET -26.118187 -8.608795 -7.079266
							CHANNELS 3 Xrotation Yrotation Zrotation
							JOINT newVegas:Right_CapeB1
							{
								OFFSET 0.000000 -8.688499 0.000000
								CHANNELS 3 Xrotation Yrotation Zrotation
								End Site
								{
									OFFSET 0.000000 8.688499 0.000000
								}
							}
						}
					}
				}
				JOINT newVegas:Left_Collar
				{
					OFFSET 18.625099 8.655502 8.828100
					CHANNELS 3 Xrotation Yrotation Zrotation
					JOINT newVegas:Left_Collar1
					{
						OFFSET 14.783401 10.540405 -1.259500
						CHANNELS 3 Xrotation Yrotation Zrotation
						End Site
						{
							OFFSET 0.000000 18.199875 0.000000
						}
					}
				}
				JOINT newVegas:Collar_Back
				{
					OFFSET 0.000000 15.630707 -20.132601
					CHANNELS 3 Xrotation Yrotation Zrotation
					End Site
					{
						OFFSET 0.000000 22.523010 0.000000
					}
				}
				JOINT newVegas:Left_Peck
				{
					OFFSET 17.239599 -5.132599 25.482599
					CHANNELS 3 Xrotation Yrotation Zrotation
					End Site
					{
						OFFSET 0.000000 22.523010 0.000000
					}
				}
				JOINT newVegas:Right_Peck
				{
					OFFSET -17.239599 -5.132202 25.482599
					CHANNELS 3 Xrotation Yrotation Zrotation
					End Site
					{
						OFFSET 0.000000 22.523010 0.000000
					}
				}
				JOINT newVegas:Right_Collar
				{
					OFFSET -18.625099 8.655792 8.828100
					CHANNELS 3 Xrotation Yrotation Zrotation
					JOINT newVegas:Right_Collar1
					{
						OFFSET -14.783401 10.539993 -1.259500
						CHANNELS 3 Xrotation Yrotation Zrotation
						End Site
						{
							OFFSET 0.000000 18.199631 0.000000
						}
					}
				}
			}
		}
		JOINT newVegas:Belly
		{
			OFFSET 0.000000 -6.540398 9.014299
			CHANNELS 3 Xrotation Yrotation Zrotation
			End Site
			{
				OFFSET 0.000000 11.566666 0.000000
			}
		}
	}
	JOINT newVegas:ElvisFacialAnim_Joint
	{
		OFFSET 1.000000 -95.330101 -8.825800
		CHANNELS 3 Xrotation Yrotation Zrotation
		End Site
		{
			OFFSET 0.000000 35.315800 0.000000
		}
	}
}
MOTION
Frames: 4
Frame Time: 0.016667
-3.216572 72.569092 -84.464615 35.377706 -68.808200 27.341570 -0.000000 -0.000002 0.000000 -70.610236 -25.610581 20.446120 45.812609 -3.326766 10.668921 25.096260 0.218119 -10.889220 -0.000000 0.000000 0.000001 0.000001 0.000003 -0.000005 -20.028444 6.259316 -27.111121 52.310182 -3.703307 -2.089237 -13.819214 -32.068035 39.920147 -0.000000 0.000000 0.000000 -0.000001 0.000001 -0.000004 0.681338 9.537525 -2.961237 -1.602551 6.808467 -2.710777 -1.615872 2.233981 1.483570 5.657759 2.109697 -1.865130 5.657759 2.109692 -1.865130 0.000003 -0.000000 0.000002 5.657829 2.109725 -1.865140 5.657781 2.109697 -1.865135 -0.000003 -0.000002 -0.000000 0.000003 -0.000000 0.000002 4.053406 5.979534 -12.991227 -54.011626 -35.171690 -50.958597 0.000347 -82.344754 0.000359 -61.076877 33.044377 41.897736 -14.557461 10.837983 12.229959 0.749539 -4.257862 13.305488 0.000003 -0.000000 -0.000005 -0.809530 2.578169 -31.496465 3.095893 5.163767 -61.866966 -0.000000 -0.000001 0.000000 -2.430844 1.729215 -41.460942 2.952334 5.084726 -60.259938 0.000001 0.000001 -0.000004 -6.054135 -0.166596 -49.857584 3.046264 5.137019 -61.313973 -0.000002 -0.000000 -0.000002 -8.298308 -6.522639 -38.520177 2.848774 5.024376 -59.084415 -0.000000 0.000000 -0.000004 0.000001 -0.000002 -0.000002 0.000001 -0.000002 -0.000002 -0.000000 -0.000001 -0.000002 0.000002 -0.000003 0.000002 0.000002 -0.000003 0.000001 0.000002 -0.000003 0.000002 0.000000 -0.000004 0.000001 -14.532549 3.553463 -4.417811 79.542252 138.739078 -57.059769 -0.000015 34.452949 0.000010 -53.561380 -12.490251 -34.496629 8.377140 -4.904142 11.021985 21.620197 -18.183917 -18.379209 -0.000000 -0.000001 0.000001 0.558936 -4.406602 25.436652 1.653044 -3.560343 49.799087 -0.000000 0.000000 0.000002 10.969836 -12.875549 52.800825 6.387579 -4.324388 111.833686 -0.000001 0.000000 0.000003 3.705092 -7.151302 57.622440 5.328205 -4.608670 98.293444 0.000000 -0.000001 0.000000 0.474841 -5.173007 58.987658 3.194316 -4.421908 71.674161 -0.000000 -0.000000 0.000001 0.000002 0.000000 -0.000000 0.000002 0.000000 -0.000000 0.000002 0.000001 -0.000000 -0.000000 0.000001 0.000001 -0.000000 0.000002 0.000000 -0.000000 0.000001 0.000001 -0.000000 0.000002 0.000000 -0.000000 0.000000 -0.000001 -0.000000 0.000000 -0.000001 -0.000000 0.000000 -0.000001 -0.000000 0.000000 -0.000001 -0.000000 0.000000 -0.000001 -0.000000 0.000000 -0.000001 -0.000000 0.000000 -0.000001 -0.000000 -0.000001 -0.000000 -0.000000 -0.000002 0.000000 
-2.743837 73.234047 -87.799820 34.348403 -67.979220 25.845724 -0.000001 0.000000 0.000000 -71.279110 -23.917483 19.692634 42.229069 -3.068373 10.501691 28.358752 -0.078114 -8.871845 -0.000001 -0.000001 -0.000000 -0.000002 0.000001 0.000000 -21.873833 4.589260 -26.454132 54.386208 -4.472628 0.702571 -16.584615 -29.946353 39.037943 -0.000000 0.000000 0.000000 -0.000001 -0.000002 -0.000005 0.632524 8.543853 -2.110851 -1.626988 6.164445 -2.467201 -1.632769 1.585602 1.723306 5.566299 2.242638 -1.976699 5.566292 2.242626 -1.976695 -0.000000 0.000000 -0.000000 5.566298 2.242626 -1.976700 5.566391 2.242614 -1.976708 -0.000004 -0.000000 0.000002 -0.000000 0.000000 -0.000001 3.999907 6.042614 -12.807236 -53.296045 -34.622990 -51.004434 -0.000187 -82.387791 -0.000174 -60.568219 31.239151 41.384167 -14.557466 10.837984 12.229956 0.749539 -4.257861 13.305489 -0.000000 -0.000000 -0.000003 -0.809531 2.578169 -31.496461 3.095893 5.163768 -61.866966 -0.000001 0.000001 -0.000002 -2.430846 1.729215 -41.460935 2.952335 5.084727 -60.259931 -0.000000 -0.000001 -0.000002 -6.054136 -0.166600 -49.857587 3.046265 5.137018 -61.313973 -0.000001 0.000001 -0.000000 -8.298315 -6.522647 -38.520173 2.848774 5.024372 -59.084408 -0.000001 -0.000005 0.000000 0.000001 0.000001 0.000003 0.000001 0.000001 0.000003 0.000000 0.000002 0.000003 0.000001 0.000002 0.000002 0.000001 0.000002 0.000001 0.000001 0.000002 0.000002 -0.000000 0.000001 0.000001 -14.624217 3.283245 -4.768786 77.652667 137.993495 -55.679910 0.000000 33.172207 -0.000001 -53.616268 -11.197029 -33.722669 8.377141 -4.904143 11.021983 21.620201 -18.183915 -18.379207 0.000000 -0.000004 0.000001 0.558936 -4.406602 25.436647 1.653045 -3.560344 49.799090 -0.000001 0.000000 -0.000002 10.969838 -12.875548 52.800825 6.387579 -4.324388 111.833686 -0.000000 -0.000001 0.000002 3.705092 -7.151302 57.622440 5.328207 -4.608669 98.293444 0.000001 0.000002 0.000005 0.474842 -5.173006 58.987658 3.194316 -4.421906 71.674154 -0.000001 0.000003 -0.000001 0.000004 -0.000001 0.000001 0.000004 -0.000000 0.000000 0.000004 -0.000001 0.000001 -0.000002 0.000000 0.000001 -0.000002 0.000001 0.000000 -0.000002 0.000000 0.000001 -0.000002 0.000001 0.000000 -0.000001 0.000002 0.000000 -0.000001 0.000002 0.000000 -0.000001 0.000002 0.000000 -0.000001 0.000002 0.000000 -0.000001 0.000002 0.000000 -0.000001 0.000002 0.000000 -0.000001 0.000002 0.000000 0.000001 0.000000 -0.000000 -0.000001 0.000000 0.000000 
-2.221651 73.909645 -91.032501 33.371994 -67.047787 24.286428 -0.000000 -0.000000 0.000000 -72.550823 -21.943489 18.865975 40.066286 -3.164816 10.335806 30.056753 -0.753543 -8.695823 0.000000 0.000001 -0.000002 0.000002 0.000000 0.000001 -23.378223 2.403117 -26.171362 55.730730 -5.566506 3.882298 -18.927928 -26.805306 38.098307 0.000000 -0.000000 0.000000 0.000002 -0.000002 -0.000004 0.626540 7.648805 -1.146979 -1.619449 5.518450 -2.231737 -1.616522 0.925572 1.956716 5.417642 2.381400 -2.024679 5.417637 2.381395 -2.024675 0.000001 -0.000003 0.000001 5.417633 2.381423 -2.024681 5.417649 2.381396 -2.024674 -0.000001 -0.000001 0.000000 0.000001 -0.000003 0.000001 3.900275 5.904404 -12.522479 -52.948682 -33.982787 -50.979852 0.000105 -82.394095 0.000110 -59.827416 29.409131 40.746982 -14.557464 10.837984 12.229957 0.749539 -4.257863 13.305493 0.000003 0.000001 -0.000003 -0.809532 2.578169 -31.496465 3.095893 5.163768 -61.866959 0.000001 -0.000000 -0.000002 -2.430846 1.729216 -41.460939 2.952336 5.084727 -60.259931 0.000001 -0.000001 0.000002 -6.054133 -0.166596 -49.857584 3.046264 5.137024 -61.313973 0.000001 0.000003 0.000002 -8.298314 -6.522643 -38.520173 2.848774 5.024375 -59.084408 0.000002 -0.000003 -0.000004 -0.000001 0.000000 0.000001 -0.000001 0.000000 0.000001 -0.000002 0.000001 0.000001 0.000002 0.000001 -0.000000 0.000002 0.000000 -0.000001 0.000002 0.000001 -0.000000 0.000001 0.000000 -0.000000 -14.701919 3.010194 -5.023188 75.541120 137.547716 -54.314617 0.000017 31.733151 -0.000017 -53.365009 -9.666766 -32.827590 8.377140 -4.904142 11.021980 21.620195 -18.183914 -18.379202 0.000000 -0.000002 -0.000001 0.558935 -4.406602 25.436644 1.653043 -3.560342 49.799094 -0.000000 0.000001 0.000002 10.969836 -12.875549 52.800825 6.387577 -4.324391 111.833686 -0.000002 -0.000000 0.000003 3.705090 -7.151302 57.622440 5.328205 -4.608666 98.293444 -0.000000 0.000001 0.000000 0.474844 -5.173006 58.987658 3.194317 -4.421905 71.674161 0.000001 -0.000000 0.000001 0.000001 -0.000000 0.000001 0.000001 0.000000 0.000000 0.000001 -0.000000 0.000001 0.000001 0.000003 0.000000 0.000001 0.000004 -0.000001 0.000001 0.000003 0.000000 0.000001 0.000004 -0.000000 0.000000 0.000000 -0.000000 0.000000 0.000000 -0.000000 0.000000 0.000000 -0.000000 0.000000 0.000000 -0.000000 0.000000 0.000000 -0.000000 0.000000 0.000000 -0.000000 0.000000 0.000000 -0.000000 0.000001 -0.000001 0.000000 -0.000000 -0.000000 0.000000 
-1.786254 74.860489 -93.919861 32.746393 -66.244468 23.087537 0.000000 -0.000001 -0.000000 -74.251854 -19.700292 17.604389 40.017470 -3.465007 10.160350 30.161238 -1.494279 -9.717423 0.000001 -0.000001 -0.000000 0.000001 -0.000002 0.000003 -25.954924 -0.334310 -24.267206 57.543517 -5.760896 4.310202 -20.946553 -25.479522 34.954395 0.000000 0.000000 -0.000000 0.000001 0.000001 0.000001 0.653301 6.953921 -0.287620 -1.604753 4.974524 -2.071098 -1.594770 0.362931 2.116386 5.265363 2.505693 -2.008473 5.265367 2.505683 -2.008473 0.000003 0.000000 0.000000 5.265366 2.505685 -2.008475 5.265443 2.505718 -2.008485 -0.000002 -0.000002 -0.000001 0.000003 0.000000 -0.000001 3.777934 5.614931 -12.196084 -52.876470 -33.357162 -50.874483 -0.000144 -82.402886 -0.000155 -59.121175 27.942179 40.166673 -14.557462 10.837979 12.229965 0.749540 -4.257865 13.305493 -0.000000 -0.000003 0.000000 -0.809531 2.578167 -31.496458 3.095891 5.163768 -61.866959 -0.000001 -0.000001 0.000003 -2.430847 1.729215 -41.460928 2.952335 5.084726 -60.259938 -0.000001 0.000000 -0.000002 -6.054135 -0.166600 -49.857584 3.046262 5.137020 -61.313973 -0.000001 0.000001 -0.000001 -8.298311 -6.522646 -38.520173 2.848773 5.024373 -59.084415 0.000001 0.000002 0.000001 -0.000000 -0.000000 -0.000002 -0.000000 -0.000000 -0.000002 -0.000001 -0.000000 -0.000002 -0.000002 0.000000 -0.000000 -0.000002 -0.000001 -0.000001 -0.000002 0.000000 -0.000000 -0.000003 -0.000001 -0.000000 -14.751595 2.757358 -5.115944 73.753954 137.448104 -53.227633 -0.000006 30.448847 0.000004 -52.877897 -8.315530 -32.047739 8.377140 -4.904140 11.021989 21.620202 -18.183910 -18.379202 0.000002 0.000002 0.000003 0.558936 -4.406602 25.436651 1.653043 -3.560343 49.799094 0.000001 -0.000000 -0.000000 10.969838 -12.875547 52.800825 6.387578 -4.324390 111.833686 -0.000000 -0.000000 0.000001 3.705092 -7.151304 57.622447 5.328206 -4.608663 98.293437 0.000000 0.000002 -0.000000 0.474841 -5.173004 58.987665 3.194318 -4.421907 71.674161 0.000001 -0.000002 -0.000000 0.000002 -0.000001 -0.000000 0.000002 0.000000 -0.000000 0.000002 -0.000001 -0.000000 -0.000003 0.000002 -0.000001 -0.000003 0.000003 -0.000001 -0.000003 0.000002 -0.000001 -0.000003 0.000002 -0.000001 -0.000000 0.000002 -0.000000 -0.000000 0.000002 -0.000000 -0.000000 0.000002 -0.000000 -0.000000 0.000002 -0.000000 -0.000000 0.000002 -0.000000 -0.000000 0.000002 -0.000000 -0.000000 0.000002 -0.000000 -0.000000 0.000002 -0.000000 0.000000 -0.000001 -0.000000 
